<svg width="192" height="192" viewBox="0 0 192 192" fill="none" xmlns="http://www.w3.org/2000/svg">
<rect width="192" height="192" rx="41" fill="white"/>
<path d="M0 41C0 18.3563 18.3563 0 41 0H74V192H41C18.3563 192 0 173.644 0 151V41Z" fill="#F1F1F1"/>
<path d="M92.7087 48.5774C98.879 48.5774 104.086 49.7371 108.331 52.0564C112.62 54.332 115.88 57.3952 118.112 61.2462C120.387 65.0971 121.525 69.4075 121.525 74.1774C121.525 78.1159 120.825 81.9887 119.425 85.7959C118.068 89.6031 115.858 93.6072 112.795 97.8082C109.775 101.965 105.771 106.604 100.783 111.724C95.7938 116.8 89.6892 122.621 82.4687 129.185H123.626L121.919 141H65.599V129.841C72.1193 123.627 77.6988 118.157 82.3374 113.431C86.9761 108.661 90.8489 104.482 93.9559 100.893C97.0629 97.2612 99.5135 94.001 101.308 91.1128C103.102 88.1809 104.371 85.4458 105.115 82.9077C105.903 80.3258 106.296 77.7221 106.296 75.0964C106.296 70.5453 105.005 66.9569 102.424 64.3313C99.8417 61.7056 96.2533 60.3928 91.6585 60.3928C87.545 60.3928 84.1316 61.1368 81.4185 62.6246C78.7053 64.1125 76.014 66.5193 73.3446 69.8451L63.761 62.559C67.3056 58.0516 71.3754 54.5945 75.9703 52.1877C80.5651 49.7809 86.1446 48.5774 92.7087 48.5774Z" fill="#2CB3F9"/>
</svg>
